<?xml version="1.0" encoding="UTF-8" standalone="no"?>
<svg
   xmlns:svg="http://www.w3.org/2000/svg"
   xmlns="http://www.w3.org/2000/svg"
   id="svg8"
   version="1.1"
   viewBox="0 0 47.889582 10.847917"
   height="41"
   width="181">
  <defs
     id="defs2">
    <clipPath
       id="clipPath22"
       clipPathUnits="userSpaceOnUse">
      <path
         style="clip-rule:evenodd"
         id="path20"
         d="m 2299.23,5732.54 v 37.47 c 0,20.69 -16.77,37.46 -37.46,37.46 h -12.49 c -20.7,0 -37.47,-16.77 -37.47,-37.46 v -37.47 h -37.47 c -20.69,0 -37.46,-16.78 -37.46,-37.47 v -12.49 c 0,-20.69 16.77,-37.46 37.46,-37.46 h 37.47 v -37.47 c 0,-20.69 16.77,-37.47 37.47,-37.47 h 12.49 c 20.69,0 37.46,16.78 37.46,37.47 v 37.47 h 37.47 c 20.69,0 37.46,16.77 37.46,37.46 v 12.49 c 0,20.69 -16.77,37.47 -37.46,37.47 h -37.47" />
    </clipPath>
    <clipPath
       id="clipPath28"
       clipPathUnits="userSpaceOnUse">
      <path
         id="path26"
         d="m 0,202.461 h 12226 v 9743.25 H 0 Z" />
    </clipPath>
    <clipPath
       id="clipPath38"
       clipPathUnits="userSpaceOnUse">
      <path
         style="clip-rule:evenodd"
         id="path36"
         d="m 1491.06,5540.62 -392.75,2.38 192.87,-1225.27 h 469.89 l 192.88,1225.27 -462.89,-2.38" />
    </clipPath>
    <clipPath
       id="clipPath44"
       clipPathUnits="userSpaceOnUse">
      <path
         id="path42"
         d="m 0,202.461 h 12226 v 9743.25 H 0 Z" />
    </clipPath>
    <clipPath
       id="clipPath54"
       clipPathUnits="userSpaceOnUse">
      <path
         style="clip-rule:evenodd"
         id="path52"
         d="m 1491.06,5540.62 -392.75,2.38 192.87,-1225.27 h 371.71 l 192.87,1225.27 -364.7,-2.38" />
    </clipPath>
    <clipPath
       id="clipPath60"
       clipPathUnits="userSpaceOnUse">
      <path
         id="path58"
         d="m 0,202.461 h 12226 v 9743.25 H 0 Z" />
    </clipPath>
    <clipPath
       id="clipPath70"
       clipPathUnits="userSpaceOnUse">
      <path
         id="path68"
         d="m 986.105,5543 h 1013.43 v 112.992 H 986.105 Z" />
    </clipPath>
    <clipPath
       id="clipPath82"
       clipPathUnits="userSpaceOnUse">
      <path
         style="clip-rule:evenodd"
         id="path80"
         d="m 1803.15,5839.61 h -627.69 l -73.64,-169.5 h 774.98 l -73.65,169.5" />
    </clipPath>
    <clipPath
       id="clipPath88"
       clipPathUnits="userSpaceOnUse">
      <path
         id="path86"
         d="m 0,202.461 h 12226 v 9743.25 H 0 Z" />
    </clipPath>
    <clipPath
       id="clipPath102"
       clipPathUnits="userSpaceOnUse">
      <path
         style="clip-rule:evenodd"
         id="path100"
         d="m 1967.97,5196.95 h -957.32 l 86.42,-487.28 392.24,4.25 392.23,-4.25 86.43,487.28" />
    </clipPath>
    <clipPath
       id="clipPath108"
       clipPathUnits="userSpaceOnUse">
      <path
         id="path106"
         d="m 0,202.461 h 12226 v 9743.25 H 0 Z" />
    </clipPath>
    <clipPath
       id="clipPath120"
       clipPathUnits="userSpaceOnUse">
      <path
         style="clip-rule:evenodd"
         id="path118"
         d="m 653.836,5231.21 c 79.57,0 144.074,64.49 144.074,144.06 0,79.57 -64.504,144.07 -144.074,144.07 -79.559,0 -144.063,-64.5 -144.063,-144.07 0,-79.57 64.504,-144.06 144.063,-144.06" />
    </clipPath>
    <clipPath
       id="clipPath126"
       clipPathUnits="userSpaceOnUse">
      <path
         id="path124"
         d="m 0,202.461 h 12226 v 9743.25 H 0 Z" />
    </clipPath>
    <clipPath
       id="clipPath136"
       clipPathUnits="userSpaceOnUse">
      <path
         style="clip-rule:evenodd"
         id="path134"
         d="m 2153.83,4875.27 c 37.44,0 67.79,30.36 67.79,67.81 0,37.44 -30.35,67.79 -67.79,67.79 -37.44,0 -67.79,-30.35 -67.79,-67.79 0,-37.45 30.35,-67.81 67.79,-67.81" />
    </clipPath>
    <clipPath
       id="clipPath142"
       clipPathUnits="userSpaceOnUse">
      <path
         id="path140"
         d="m 0,202.461 h 12226 v 9743.25 H 0 Z" />
    </clipPath>
    <clipPath
       id="clipPath152"
       clipPathUnits="userSpaceOnUse">
      <path
         style="clip-rule:evenodd"
         id="path150"
         d="m 882.656,4485.45 c 37.442,0 67.793,30.35 67.793,67.79 0,37.44 -30.351,67.81 -67.793,67.81 -37.453,0 -67.801,-30.37 -67.801,-67.81 0,-37.44 30.348,-67.79 67.801,-67.79" />
    </clipPath>
    <clipPath
       id="clipPath158"
       clipPathUnits="userSpaceOnUse">
      <path
         id="path156"
         d="m 0,202.461 h 12226 v 9743.25 H 0 Z" />
    </clipPath>
    <clipPath
       id="clipPath168"
       clipPathUnits="userSpaceOnUse">
      <path
         style="clip-rule:evenodd"
         id="path166"
         d="m 2962.19,4807.3 c -11.53,-22.07 -27.38,-41.29 -47.53,-57.6 -20.16,-16.32 -43.68,-29.61 -70.55,-39.84 -26.88,-10.25 -53.94,-17.14 -81.12,-20.64 -27.22,-3.52 -53.61,-3.21 -79.21,0.96 -25.6,4.16 -47.37,12.63 -65.28,25.45 l 20.17,210.23 c 18.55,6.4 41.9,12.96 70.07,19.68 28.15,6.71 57.12,11.52 86.89,14.39 29.76,2.89 57.91,2.55 84.48,-0.96 26.54,-3.52 47.51,-12 62.87,-25.45 8.32,-7.66 15.37,-15.98 21.13,-24.95 5.74,-8.96 9.27,-18.24 10.56,-27.84 3.19,-26.87 -0.97,-51.35 -12.48,-73.43 m -292.81,447.83 c 13.44,8.32 29.6,15.69 48.48,22.09 18.88,6.38 38.24,10.88 58.08,13.44 19.83,2.54 39.2,2.89 58.08,0.96 18.87,-1.93 35.53,-7.2 49.93,-15.83 14.39,-8.65 25.11,-21.14 32.14,-37.44 7.05,-16.33 8.97,-36.98 5.77,-61.93 -2.56,-19.84 -10.41,-36.65 -23.52,-50.4 -13.11,-13.77 -29.13,-25.28 -48,-34.57 -18.87,-9.29 -38.88,-16.64 -59.99,-22.06 -21.13,-5.46 -41.46,-9.46 -60.97,-12.01 -19.52,-2.57 -36.48,-4.18 -50.87,-4.8 -14.41,-0.64 -23.86,-0.96 -28.32,-0.96 l 19.19,203.51 m 396.49,-312 c -10.24,22.4 -24.01,42.08 -41.28,59.05 -17.29,16.96 -37.78,29.27 -61.45,36.96 10.24,8.31 20.32,21.43 30.25,39.36 9.91,17.9 18.39,37.44 25.43,58.56 7.04,21.12 11.84,42.39 14.4,63.84 2.55,21.43 1.58,39.84 -2.87,55.2 -10.9,38.39 -28.02,68.48 -51.38,90.24 -23.36,21.75 -50.54,36.8 -81.59,45.13 -31.04,8.28 -65.28,10.06 -102.72,5.27 -37.43,-4.8 -75.7,-14.24 -114.71,-28.32 0,3.19 0.31,6.55 0.96,10.07 0.62,3.51 0.94,7.2 0.94,11.05 0,9.6 -4.79,17.9 -14.39,24.95 -9.6,7.04 -20.64,11.2 -33.11,12.49 -12.48,1.26 -24.65,-1.44 -36.49,-8.16 -11.85,-6.72 -20.01,-19.07 -24.48,-36.96 -5.13,-57.6 -10.25,-117.45 -15.36,-179.51 -5.13,-62.09 -10.56,-124.82 -16.32,-188.18 -5.76,-63.36 -11.52,-126.24 -17.28,-188.63 -5.76,-62.41 -11.52,-122.4 -17.28,-179.99 1.92,-17.29 6.72,-30.73 14.4,-40.33 7.68,-9.61 16.64,-15.36 26.89,-17.28 10.22,-1.92 20.95,-0.15 32.15,5.28 11.19,5.42 20.95,14.89 29.29,28.32 25.59,-14.08 54.39,-23.2 86.4,-27.37 31.99,-4.15 64.46,-4.15 97.44,0 32.95,4.17 65.43,12 97.43,23.53 32,11.51 61.11,25.92 87.37,43.19 26.23,17.28 48.31,36.97 66.23,59.04 17.92,22.1 29.76,45.93 35.52,71.52 5.77,26.25 7.36,52.48 4.8,78.72 -2.56,26.24 -8.97,50.55 -19.19,72.96" />
    </clipPath>
    <clipPath
       id="clipPath174"
       clipPathUnits="userSpaceOnUse">
      <path
         id="path172"
         d="m 0,202.461 h 12226 v 9743.25 H 0 Z" />
    </clipPath>
    <clipPath
       id="clipPath184"
       clipPathUnits="userSpaceOnUse">
      <path
         style="clip-rule:evenodd"
         id="path182"
         d="m 4002.35,4436.26 c -3.52,-21.11 -8.48,-43.36 -14.88,-66.73 -6.41,-23.35 -13.93,-44.64 -22.56,-63.84 -8.63,-19.2 -18.24,-34.69 -28.79,-46.55 -10.57,-11.83 -21.93,-16.8 -34.09,-14.89 -9.6,1.3 -15.68,7.38 -18.23,18.24 -2.57,10.9 -2.57,24.33 0,40.32 2.55,16.01 7.5,34.09 14.87,54.25 7.36,20.16 16.32,40.17 26.88,59.99 10.57,19.85 22.56,38.88 36,57.13 13.45,18.22 27.51,33.44 42.24,45.6 3.2,-3.84 4.64,-13.44 4.32,-28.81 -0.34,-15.35 -2.25,-33.61 -5.76,-54.71 m 325.45,416.63 c -8.65,9.6 -19.21,15.03 -31.69,16.33 -12.47,1.28 -25.12,-5.76 -37.92,-21.12 -8.33,-15.37 -18.88,-30.08 -31.68,-44.16 -12.8,-14.1 -26.08,-26.88 -39.84,-38.4 -13.76,-11.52 -26.88,-21.45 -39.37,-29.76 -12.46,-8.33 -22.23,-14.4 -29.27,-18.24 -2.56,20.47 -4.01,42.55 -4.31,66.24 -0.34,23.67 0.15,47.67 1.44,71.99 1.91,34.56 5.91,69.44 11.99,104.64 6.08,35.2 14.88,69.77 26.4,103.7 0,17.9 -4.18,32.46 -12.48,43.67 -8.32,11.19 -18.4,18.24 -30.24,21.12 -11.85,2.87 -23.99,1.27 -36.47,-4.8 -12.48,-6.09 -23.21,-17.14 -32.17,-33.12 -7.67,-21.12 -16.48,-44.8 -26.39,-71.04 -9.94,-26.24 -21.13,-52.97 -33.6,-80.15 -12.49,-27.23 -26.41,-53.62 -41.77,-79.21 -15.36,-25.61 -32.16,-48.33 -50.41,-68.17 -18.22,-19.83 -38.08,-35.37 -59.5,-46.56 -21.46,-11.2 -44.64,-16.16 -69.6,-14.88 -11.53,3.2 -19.86,11.84 -24.97,25.94 -5.13,14.06 -8.17,31.66 -9.11,52.79 -0.96,21.11 0,44.31 2.87,69.6 2.89,25.27 6.73,50.4 11.52,75.35 4.8,24.97 10.09,48.64 15.84,71.04 5.75,22.4 11.19,41.29 16.32,56.65 7.69,18.54 7.69,34.09 0,46.56 -7.68,12.48 -18.23,20.79 -31.67,24.96 -13.45,4.16 -27.54,3.99 -42.25,-0.48 -14.72,-4.48 -25.28,-14.4 -31.68,-29.76 -10.89,-26.26 -20.81,-55.68 -29.76,-88.32 -8.97,-32.64 -16.16,-66.41 -21.59,-101.28 -5.46,-34.89 -8.51,-69.46 -9.15,-103.69 -0.02,-2.23 0.08,-4.35 0.07,-6.57 -13.96,-37.21 -27.25,-65.32 -39.89,-84.14 -16.32,-24.34 -34.72,-34.89 -55.2,-31.68 -8.98,3.84 -14.88,12.79 -17.75,26.87 -2.91,14.08 -3.86,31.36 -2.91,51.86 0.99,20.46 3.39,43.66 7.21,69.59 3.87,25.92 8.63,52.79 14.39,80.63 5.77,27.86 11.86,55.83 18.26,84 6.38,28.16 12.14,54.73 17.28,79.69 -0.64,22.4 -7.21,39.51 -19.69,51.36 -12.47,11.83 -29.92,16.47 -52.31,13.92 -15.35,-6.41 -26.73,-14.74 -34.08,-24.97 -7.38,-10.23 -13.3,-23.36 -17.77,-39.35 -2.56,-8.33 -6.4,-24.96 -11.51,-49.93 -5.13,-24.94 -11.68,-53.6 -19.69,-85.92 -8,-32.33 -17.44,-66.08 -28.31,-101.28 -10.89,-35.19 -23.05,-67.05 -36.48,-95.51 -13.44,-28.48 -28.17,-51.36 -44.16,-68.65 -16,-17.26 -33.29,-24.31 -51.85,-21.11 -10.24,1.93 -16.8,12.48 -19.67,31.67 -2.88,19.21 -3.36,42.87 -1.44,71.05 1.92,28.15 5.76,59.04 11.52,92.63 5.75,33.6 11.66,65.43 17.75,95.53 6.08,30.07 11.68,56.65 16.81,79.68 5.12,23.04 8.63,38.4 10.56,46.07 0,18.56 -4.18,33.43 -12.48,44.65 -8.33,11.18 -18.41,18.23 -30.25,21.12 -11.84,2.87 -24,1.28 -36.47,-4.8 -12.48,-6.09 -23.2,-17.14 -32.17,-33.12 -3.2,-17.28 -7.36,-37.29 -12.48,-60 -5.13,-22.72 -10.07,-46.07 -14.87,-70.08 -4.8,-24.01 -9.29,-47.53 -13.45,-70.57 -4.16,-23.04 -7.2,-43.19 -9.12,-60.48 -1.28,-13.43 -2.72,-29.92 -4.31,-49.43 -1.61,-19.53 -2.41,-40.17 -2.41,-61.92 0,-21.77 1.59,-43.37 4.82,-64.8 3.18,-21.46 8.94,-41.14 17.26,-59.03 8.32,-17.93 20,-32.65 35.05,-44.16 15.03,-11.53 34.08,-17.92 57.12,-19.22 23.66,-1.26 44.31,0.48 61.92,5.29 17.6,4.8 33.58,12.32 48,22.57 14.39,10.21 27.51,22.38 39.35,36.47 11.83,14.07 23.53,29.43 35.05,46.08 10.87,-24.34 24.96,-43.2 42.24,-56.65 17.28,-13.43 35.52,-21.44 54.72,-23.99 19.19,-2.55 38.73,0.15 58.56,8.16 19.84,7.99 37.75,21.6 53.76,40.8 10.54,11.77 20.48,25.16 29.8,39.96 3.96,-6.93 8.18,-13.62 12.91,-19.79 15.69,-20.5 36.98,-34.57 63.86,-42.25 28.79,-7.69 56.94,-8.98 84.48,-3.85 27.51,5.12 53.76,14.41 78.71,27.84 24.97,13.45 48.15,29.6 69.6,48.49 21.43,18.87 40.15,38.54 56.16,59.04 -0.65,-14.73 -0.97,-28.65 -0.97,-41.76 0,-13.13 -0.31,-27.35 -0.95,-42.72 -32.02,-22.42 -62.24,-49.29 -90.72,-80.65 -28.49,-31.35 -53.45,-64.78 -74.88,-100.31 -21.44,-35.52 -38.24,-71.51 -50.39,-108 -12.17,-36.49 -18.1,-70.55 -17.76,-102.24 0.31,-31.68 7.83,-59.36 22.54,-83.03 14.72,-23.69 38.72,-40.65 72.01,-50.89 34.57,-10.89 64.95,-11.19 91.21,-0.96 26.24,10.25 49.11,27.21 68.63,50.88 19.52,23.68 35.51,52.32 48.01,85.92 12.47,33.59 22.4,68.63 29.75,105.12 7.36,36.47 12,72.34 13.92,107.51 1.92,35.21 1.92,66.58 0,94.1 55.04,23.03 100.15,52.15 135.36,87.35 35.2,35.18 64.32,72.32 87.37,111.36 7.03,9.6 9.43,21.11 7.2,34.55 -2.26,13.45 -7.69,24.97 -16.32,34.56" />
    </clipPath>
    <clipPath
       id="clipPath190"
       clipPathUnits="userSpaceOnUse">
      <path
         id="path188"
         d="m 0,202.461 h 12226 v 9743.25 H 0 Z" />
    </clipPath>
    <clipPath
       id="clipPath200"
       clipPathUnits="userSpaceOnUse">
      <path
         style="clip-rule:evenodd"
         id="path198"
         d="m 5538.83,4914.34 c 1.91,14.71 4.8,30.24 8.63,46.56 3.84,16.32 8.65,32.16 14.41,47.52 5.75,15.36 12.48,28.64 20.16,39.84 7.69,11.19 15.84,19.19 24.48,24 8.65,4.79 17.42,4.31 26.4,-1.43 9.6,-5.78 15.51,-17.93 17.76,-36.48 2.23,-18.58 0,-38.41 -6.72,-59.53 -6.72,-21.13 -18.73,-40.96 -36,-59.52 -17.27,-18.57 -40.65,-30.72 -70.08,-36.48 -1.3,8.94 -0.96,20.79 0.96,35.52 m 332.64,-39.35 c -10.56,3.17 -20.64,3.51 -30.25,0.95 -9.59,-2.56 -15.68,-9.28 -18.23,-20.17 -5.14,-20.48 -13.3,-41.43 -24.49,-62.87 -11.21,-21.44 -24.96,-41.76 -41.26,-60.97 -16.32,-19.2 -34.74,-36.16 -55.21,-50.88 -20.49,-14.71 -41.92,-25.28 -64.32,-31.67 -22.42,-7.05 -40.97,-7.84 -55.68,-2.4 -14.73,5.42 -26.41,14.72 -35.04,27.84 -8.63,13.11 -14.88,28.95 -18.72,47.52 -3.85,18.56 -6.09,37.75 -6.73,57.6 36.49,-2.57 68.97,3.99 97.46,19.68 28.45,15.67 52.62,36.48 72.47,62.39 19.83,25.92 34.87,55.04 45.11,87.37 10.23,32.31 16.01,64.47 17.29,96.48 0.62,30.08 -3.84,55.51 -13.44,76.31 -9.6,20.8 -22.57,36.98 -38.89,48.49 -16.31,11.52 -35.04,18.24 -56.16,20.16 -21.1,1.92 -42.56,-0.97 -64.32,-8.64 -26.26,-8.96 -48.48,-23.52 -66.71,-43.69 -18.25,-20.15 -33.45,-43.53 -45.6,-70.08 -12.17,-26.56 -21.76,-55.19 -28.8,-85.91 -7.05,-30.72 -12.17,-60.97 -15.36,-90.73 -2.89,-26.71 -4.42,-52.25 -4.97,-76.9 -1.36,-3.13 -2.69,-6.14 -4.15,-9.49 -9.92,-22.73 -21.47,-44.97 -34.56,-66.73 -13.13,-21.76 -27.69,-40.01 -43.68,-54.71 -16,-14.73 -32.64,-19.85 -49.92,-15.36 -10.25,2.54 -15.83,14.41 -16.8,35.51 -0.96,21.14 0.15,47.37 3.35,78.72 3.2,31.35 6.88,65.29 11.05,101.77 4.15,36.48 6.23,71.35 6.23,104.64 0,28.8 -5.44,56.47 -16.32,83.04 -10.89,26.54 -25.77,48.63 -44.64,66.23 -18.88,17.61 -40.79,29.29 -65.75,35.04 -24.97,5.78 -51.84,1.92 -80.63,-11.51 -28.82,-13.44 -51.69,-32.32 -68.65,-56.64 -16.98,-24.34 -32.49,-49.93 -46.56,-76.8 -5.13,20.48 -12.64,39.51 -22.56,57.12 -9.93,17.6 -22.07,32.95 -36.48,46.08 -14.4,13.11 -30.59,23.35 -48.48,30.72 -17.92,7.34 -36.81,11.03 -56.64,11.03 -19.2,0 -36.96,-3.69 -53.28,-11.03 -16.33,-7.37 -31.21,-16.8 -44.65,-28.32 -13.43,-11.53 -25.59,-24.48 -36.48,-38.89 -10.87,-14.39 -20.49,-28.64 -28.79,-42.71 -1.3,16.64 -2.74,31.2 -4.33,43.69 -1.6,12.47 -4.49,23.03 -8.64,31.66 -4.16,8.65 -10.07,15.2 -17.75,19.69 -7.69,4.47 -18.57,6.72 -32.63,6.72 -7.05,0 -14.11,-1.44 -21.13,-4.32 -7.05,-2.88 -13.3,-6.89 -18.72,-12 -5.44,-5.14 -9.6,-11.37 -12.47,-18.72 -2.91,-7.36 -3.69,-15.85 -2.42,-25.44 0.64,-7.05 2.42,-15.52 5.29,-25.45 2.88,-9.92 5.59,-22.89 8.16,-38.87 2.54,-16 4.63,-35.37 6.23,-58.08 1.61,-22.73 2.07,-50.57 1.45,-83.53 -0.66,-32.97 -3.05,-71.51 -7.21,-115.67 -4.17,-44.16 -10.72,-95.37 -19.68,-153.6 -1.28,-13.43 3.84,-24.32 15.37,-32.64 11.52,-8.32 24.63,-13.11 39.35,-14.4 14.72,-1.28 28.65,1.29 41.77,7.67 13.11,6.42 20.64,17.61 22.56,33.6 1.92,30.09 5.59,62.08 11.04,96.01 5.43,33.9 12.15,67.51 20.16,100.8 7.99,33.27 17.11,64.95 27.36,95.04 10.23,30.09 21.59,56.64 34.08,79.67 12.48,23.05 25.44,41.44 38.87,55.2 13.45,13.76 27.52,20.64 42.25,20.64 17.92,0 31.83,-8.15 41.76,-24.46 9.91,-16.34 16.94,-37.31 21.13,-62.88 4.15,-25.62 6.06,-53.63 5.76,-84.01 -0.34,-30.4 -1.61,-59.68 -3.85,-87.83 -2.24,-28.18 -4.8,-53.3 -7.69,-75.38 -2.88,-22.08 -4.96,-37.28 -6.23,-45.59 0,-14.73 5.6,-26.4 16.79,-35.04 11.19,-8.63 23.67,-13.76 37.45,-15.36 13.76,-1.6 26.71,0.96 38.88,7.68 12.15,6.73 19.19,18.07 21.11,34.08 6.4,46.08 15.21,92.31 26.4,138.71 11.19,46.4 24,87.99 38.41,124.8 14.39,36.81 30.39,66.89 48,90.25 17.59,23.35 36.31,35.03 56.17,35.03 10.21,0 18.07,-7.05 23.5,-21.11 5.43,-14.08 8.17,-33.28 8.17,-57.6 0,-17.93 -1.45,-36.32 -4.32,-55.2 -2.89,-18.88 -6.24,-38.41 -10.09,-58.56 -3.83,-20.17 -7.2,-40.81 -10.08,-61.92 -2.88,-21.13 -4.31,-43.2 -4.31,-66.24 0,-16 1.6,-34.57 4.8,-55.68 3.19,-21.11 9.27,-41.14 18.24,-60 8.95,-18.89 21.26,-34.88 36.97,-48 15.67,-13.12 35.66,-19.68 59.98,-19.68 36.48,0 68.8,7.84 96.97,23.52 28.15,15.67 52.32,36.15 72.47,61.43 1.06,1.33 2,2.74 3.03,4.06 1.54,-3.74 2.91,-7.7 4.65,-11.26 13.76,-28.16 32.48,-49.91 56.17,-65.28 23.66,-15.35 51.5,-23.83 83.52,-25.44 32,-1.58 66.87,4.34 104.64,17.76 28.15,10.25 52.63,23.05 73.43,38.41 20.79,15.36 39.51,34.08 56.16,56.16 16.65,22.08 31.84,47.53 45.61,76.31 13.77,28.82 27.67,61.76 41.75,98.9 2.56,10.22 0.16,19.34 -7.18,27.35 -7.37,7.99 -16.33,13.59 -26.89,16.81" />
    </clipPath>
    <clipPath
       id="clipPath206"
       clipPathUnits="userSpaceOnUse">
      <path
         id="path204"
         d="m 0,202.461 h 12226 v 9743.25 H 0 Z" />
    </clipPath>
    <clipPath
       id="clipPath216"
       clipPathUnits="userSpaceOnUse">
      <path
         style="clip-rule:evenodd"
         id="path214"
         d="m 6393.23,4982.02 c -3.21,-18.88 -7.53,-39.7 -12.96,-62.4 -5.46,-22.73 -12.32,-46.24 -20.64,-70.57 -8.32,-24.32 -18.57,-46.24 -30.71,-65.75 -12.17,-19.54 -26.1,-35.04 -41.77,-46.56 -15.69,-11.52 -33.76,-16.32 -54.24,-14.4 -10.25,1.26 -18.09,8.31 -23.53,21.12 -5.43,12.79 -8.31,29.12 -8.64,48.96 -0.32,19.83 1.44,41.59 5.28,65.28 3.84,23.67 9.76,46.88 17.78,69.6 7.99,22.7 17.75,43.68 29.27,62.89 11.51,19.19 24.79,34.07 39.84,44.63 15.03,10.56 31.52,15.5 49.43,14.88 17.92,-0.64 37.11,-9.59 57.61,-26.88 -1.3,-8.33 -3.51,-21.93 -6.72,-40.8 m 341.27,-73.44 c -9.93,5.12 -20.16,6.23 -30.71,3.35 -10.55,-2.87 -18.09,-12.64 -22.56,-29.27 -2.56,-17.93 -8.32,-39.04 -17.28,-63.36 -8.97,-24.32 -20.02,-47.38 -33.12,-69.12 -13.13,-21.76 -28.16,-39.85 -45.12,-54.24 -16.97,-14.41 -35.04,-20.98 -54.24,-19.67 -16.01,1.27 -27.21,9.42 -33.6,24.46 -6.42,15.05 -9.76,33.91 -10.08,56.65 -0.33,22.7 1.93,48.3 6.71,76.79 4.81,28.48 10.57,56.79 17.28,84.97 6.72,28.14 13.61,55.2 20.66,81.11 7.02,25.92 12.78,47.85 17.28,65.76 5.11,16 3.51,29.59 -4.81,40.81 -8.32,11.18 -18.72,19.2 -31.19,23.99 -12.5,4.81 -25.14,6.09 -37.94,3.84 -12.8,-2.24 -21.1,-9.12 -24.95,-20.63 -37.77,32.64 -74.09,50.24 -108.96,52.8 -34.89,2.56 -67.05,-5.13 -96.48,-23.05 -29.45,-17.91 -55.53,-43.83 -78.24,-77.76 -22.72,-33.93 -41.13,-70.88 -55.21,-110.87 -14.08,-40 -22.88,-80.82 -26.39,-122.41 -3.53,-41.6 -0.81,-79.53 8.16,-113.76 8.96,-34.23 24.78,-62.25 47.52,-83.99 22.71,-21.77 53.59,-32.65 92.64,-32.65 17.28,0 33.91,3.52 49.92,10.56 15.99,7.05 30.71,15.37 44.16,24.96 13.44,9.6 25.27,19.69 35.53,30.24 10.21,10.56 18.23,19.36 23.99,26.41 4.47,-23.04 11.84,-42.57 22.08,-58.57 10.24,-15.99 21.93,-29.13 35.04,-39.35 13.11,-10.23 26.88,-17.75 41.28,-22.57 14.4,-4.79 28.32,-7.19 41.76,-7.19 30.08,0 58.23,10.24 84.48,30.72 26.24,20.47 49.76,45.6 70.57,75.35 20.79,29.77 37.91,61.13 51.34,94.09 13.45,32.95 22.41,62.23 26.89,87.85 4.48,9.59 3.67,19.66 -2.4,30.23 -6.1,10.55 -14.09,18.39 -24.01,23.52" />
    </clipPath>
    <clipPath
       id="clipPath222"
       clipPathUnits="userSpaceOnUse">
      <path
         id="path220"
         d="m 0,202.461 h 12226 v 9743.25 H 0 Z" />
    </clipPath>
    <clipPath
       id="clipPath232"
       clipPathUnits="userSpaceOnUse">
      <path
         style="clip-rule:evenodd"
         id="path230"
         d="m 8462.51,4378.66 c -5.44,-21.76 -13.93,-40.16 -25.45,-55.19 -11.5,-15.04 -25.91,-22.89 -43.19,-23.54 -10.88,-0.62 -19.2,5.13 -24.96,17.29 -5.75,12.16 -9.75,27.84 -12,47.03 -2.25,19.21 -3.21,40.65 -2.89,64.33 0.33,23.68 1.28,47.04 2.89,70.08 1.59,23.03 3.51,44.5 5.77,64.32 2.22,19.85 3.98,35.18 5.27,46.07 21.75,-2.55 39.85,-11.98 54.23,-28.32 14.41,-16.32 25.45,-35.67 33.13,-58.07 7.69,-22.41 12.15,-46.57 13.44,-72.48 1.27,-25.92 -0.81,-49.76 -6.24,-71.52 m -347.52,0 c -5.43,-21.76 -13.92,-40.16 -25.44,-55.19 -11.51,-15.04 -25.92,-22.89 -43.2,-23.54 -10.88,-0.62 -19.19,5.13 -24.95,17.29 -5.76,12.16 -9.78,27.84 -12,47.03 -2.27,19.21 -3.22,40.65 -2.89,64.33 0.32,23.68 1.28,47.04 2.89,70.08 1.58,23.03 3.5,44.5 5.76,64.32 2.22,19.85 3.98,35.18 5.27,46.07 21.76,-2.55 39.85,-11.98 54.24,-28.32 14.4,-16.32 25.44,-35.67 33.12,-58.07 7.69,-22.41 12.15,-46.57 13.45,-72.48 1.26,-25.92 -0.82,-49.76 -6.25,-71.52 m -356.63,545.27 c -0.65,-15.35 -2.09,-28.95 -4.34,-40.78 -2.23,-11.87 -5.27,-19.37 -9.11,-22.57 -7.05,3.84 -15.69,13.74 -25.93,29.76 -10.24,15.99 -18.23,34.09 -24,54.25 -5.75,20.16 -7.53,39.98 -5.27,59.52 2.22,19.5 12.32,34.69 30.24,45.59 7.02,3.84 13.11,2.4 18.24,-4.32 5.12,-6.72 9.27,-16.48 12.48,-29.28 3.2,-12.81 5.42,-27.53 6.71,-44.16 1.28,-16.65 1.6,-32.64 0.98,-48.01 m -84.97,-191.52 c -9.92,-10.55 -20.98,-19.67 -33.12,-27.35 -12.17,-7.69 -24.64,-13.45 -37.44,-17.29 -12.81,-3.84 -24.32,-4.79 -34.56,-2.87 -28.81,5.75 -50.89,18.25 -66.23,37.44 -15.37,19.19 -25.14,41.75 -29.29,67.67 -4.17,25.93 -3.69,53.61 1.45,83.05 5.11,29.43 13.74,56.79 25.91,82.08 12.16,25.28 26.88,47.04 44.16,65.27 17.27,18.25 36.14,29.59 56.64,34.09 -7.69,-32.64 -10.25,-66.41 -7.69,-101.28 2.56,-34.88 10.89,-67.68 24.97,-98.39 8.96,-18.59 19.68,-35.53 32.15,-50.88 12.49,-15.38 27.69,-28.49 45.62,-39.37 -5.13,-10.89 -12.66,-21.61 -22.57,-32.17 m 1062.24,181.93 c 1.92,14.7 4.79,30.25 8.64,46.57 3.83,16.31 8.65,32.15 14.39,47.51 5.76,15.36 12.49,28.64 20.18,39.83 7.67,11.2 15.83,19.21 24.46,24.01 8.65,4.8 17.44,4.32 26.41,-1.44 9.6,-5.77 15.51,-17.92 17.75,-36.47 2.25,-18.58 0,-38.41 -6.71,-59.53 -6.72,-21.13 -18.72,-40.96 -36.01,-59.52 -17.26,-18.58 -40.63,-30.72 -70.07,-36.48 -1.29,8.95 -0.96,20.79 0.96,35.52 m 386.88,0 c 1.93,14.7 4.8,30.25 8.64,46.57 3.85,16.31 8.64,32.15 14.4,47.51 5.77,15.36 12.48,28.64 20.16,39.83 7.69,11.2 15.85,19.21 24.48,24.01 8.65,4.8 17.45,4.32 26.41,-1.44 9.59,-5.77 15.5,-17.92 17.75,-36.47 2.24,-18.58 0,-38.41 -6.72,-59.53 -6.72,-21.13 -18.71,-40.96 -36,-59.52 -17.26,-18.58 -40.65,-30.72 -70.08,-36.48 -1.28,8.95 -0.96,20.79 0.96,35.52 m 359.53,-56.17 c -7.37,7.99 -16.32,13.6 -26.88,16.81 -10.56,3.2 -20.63,3.51 -30.25,0.95 -9.6,-2.55 -15.69,-9.28 -18.23,-20.16 -5.13,-20.48 -13.29,-41.44 -24.48,-62.86 -11.2,-21.46 -24.95,-41.78 -41.28,-60.97 -16.32,-19.2 -34.73,-36.17 -55.2,-50.89 -20.5,-14.72 -41.93,-25.28 -64.31,-31.67 -22.43,-7.06 -40.98,-7.85 -55.7,-2.4 -14.73,5.43 -26.4,14.71 -35.04,27.82 -8.63,13.14 -14.87,28.97 -18.72,47.54 -3.84,18.55 -6.08,37.75 -6.72,57.59 36.49,-2.57 68.97,3.99 97.45,19.69 28.46,15.67 52.63,36.48 72.48,62.4 19.83,25.91 34.88,55.03 45.11,87.36 10.24,32.32 16,64.47 17.29,96.47 0.62,30.09 -3.85,55.53 -13.45,76.33 -9.59,20.79 -22.55,36.97 -38.88,48.47 -16.32,11.54 -35.03,18.25 -56.16,20.17 -21.11,1.92 -42.57,-0.97 -64.32,-8.63 -26.24,-8.98 -48.47,-23.53 -66.7,-43.69 -18.25,-20.17 -33.46,-43.54 -45.62,-70.08 -12.16,-26.57 -21.76,-55.19 -28.8,-85.92 -7.05,-30.71 -12.17,-60.97 -15.34,-90.72 -3.12,-28.88 -4.81,-56.52 -5.19,-82.97 -2.43,-5.27 -5,-10.57 -7.8,-15.9 -11.2,-21.46 -24.95,-41.78 -41.27,-60.97 -16.31,-19.2 -34.73,-36.17 -55.19,-50.89 -20.49,-14.72 -41.93,-25.28 -64.33,-31.67 -22.41,-7.06 -40.96,-7.85 -55.67,-2.4 -14.73,5.43 -26.41,14.71 -35.04,27.82 -8.64,13.14 -14.88,28.97 -18.72,47.54 -3.85,18.55 -6.1,37.75 -6.73,57.59 36.47,-2.57 68.96,3.99 97.45,19.69 28.46,15.67 52.63,36.48 72.47,62.4 19.84,25.91 34.87,55.03 45.12,87.36 10.22,32.32 16,64.47 17.27,96.47 0.64,30.09 -3.82,55.53 -13.42,76.33 -9.61,20.79 -22.57,36.97 -38.89,48.47 -16.33,11.54 -35.04,18.25 -56.16,20.17 -21.12,1.92 -42.57,-0.97 -64.32,-8.63 -26.26,-8.98 -48.49,-23.53 -66.72,-43.69 -18.24,-20.17 -33.45,-43.54 -45.6,-70.08 -12.16,-26.57 -21.76,-55.19 -28.8,-85.92 -7.05,-30.71 -12.16,-60.97 -15.35,-90.72 -1.82,-16.79 -3.04,-33.06 -3.93,-49.03 -6.18,-5.27 -12.22,-10.56 -18.64,-15.77 -22.07,-17.93 -45.29,-34.07 -69.59,-48.48 -24.35,-14.41 -49.62,-26.24 -75.84,-35.53 -26.26,-9.28 -53.14,-14.88 -80.66,-16.79 l 59.53,637.44 c 3.84,13.45 1.92,25.27 -5.76,35.51 -7.68,10.24 -17.6,17.29 -29.76,21.12 -12.15,3.85 -25.12,3.52 -38.89,-0.95 -13.76,-4.5 -25.11,-14.73 -34.07,-30.72 -4.48,-24.33 -9.12,-57.6 -13.91,-99.84 -4.81,-42.24 -9.61,-88.32 -14.41,-138.24 -4.8,-49.93 -9.6,-101.44 -14.4,-154.56 -4.79,-53.14 -8.97,-102.73 -12.48,-148.8 -0.15,-2.04 -0.29,-3.9 -0.45,-5.92 -5.6,-4.75 -11.03,-9.53 -16.83,-14.24 -22.07,-17.93 -45.29,-34.07 -69.6,-48.48 -24.34,-14.41 -49.61,-26.24 -75.83,-35.53 -26.26,-9.28 -53.15,-14.88 -80.65,-16.79 l 59.52,637.44 c 3.84,13.45 1.92,25.27 -5.75,35.51 -7.68,10.24 -17.62,17.29 -29.78,21.12 -12.15,3.85 -25.11,3.52 -38.87,-0.95 -13.77,-4.5 -25.12,-14.73 -34.08,-30.72 -4.48,-24.33 -9.12,-57.6 -13.91,-99.84 -4.81,-42.24 -9.61,-88.32 -14.41,-138.24 -4.81,-49.93 -9.59,-101.44 -14.4,-154.56 -4.79,-53.14 -8.97,-102.73 -12.48,-148.8 -0.06,-0.93 -0.13,-1.77 -0.2,-2.69 -10.06,-4.66 -21.03,-8.76 -32.92,-12.19 -12.17,-3.53 -25.92,-5.62 -41.28,-6.25 2.56,11.53 4.63,24.33 6.24,38.41 1.59,14.07 2.88,28.79 3.85,44.16 0.95,15.35 1.27,30.72 0.95,46.08 -0.34,15.37 -1.13,29.43 -2.39,42.24 -3.22,27.51 -9.12,53.59 -17.76,78.25 -8.65,24.62 -20.33,45.25 -35.04,61.91 -14.74,16.64 -33.13,27.84 -55.22,33.59 -22.07,5.77 -47.84,3.85 -77.26,-5.75 -43.55,5.75 -82.73,1.75 -117.62,-12 -34.87,-13.78 -65.12,-33.77 -90.72,-60 -25.59,-26.26 -46.54,-57.12 -62.86,-92.65 -16.34,-35.5 -27.21,-72 -32.66,-109.42 -2.29,-15.87 -3.42,-31.67 -3.76,-47.43 -9.9,-20.29 -20.75,-38.02 -32.71,-52.9 -16.96,-21.13 -34.55,-38.4 -52.8,-51.84 -18.24,-13.44 -36.33,-23.69 -54.24,-30.73 -17.93,-7.05 -33.92,-11.85 -47.99,-14.39 -16.65,-3.21 -32.65,-3.53 -48.01,-0.96 -15.34,2.54 -29.45,9.91 -42.23,22.08 -10.25,8.94 -18.09,23.36 -23.52,43.19 -5.45,19.85 -8.65,42.39 -9.6,67.69 -0.97,25.28 0,51.69 2.87,79.2 2.89,27.5 7.83,53.6 14.88,78.23 7.04,24.64 15.99,46.72 26.89,66.26 10.86,19.5 23.66,33.43 38.4,41.75 8.31,-1.29 13.44,-6.24 15.36,-14.87 1.92,-8.65 2.39,-18.89 1.43,-30.73 -0.95,-11.85 -2.4,-24.01 -4.31,-36.48 -1.93,-12.48 -2.89,-22.89 -2.89,-31.2 3.21,-17.28 9.44,-30.73 18.73,-40.33 9.26,-9.6 19.68,-15.2 31.2,-16.79 11.52,-1.61 22.87,1.11 34.08,8.16 11.18,7.03 20.3,18.23 27.36,33.6 0.63,-0.64 1.59,-0.96 2.87,-0.96 l 13.45,121.91 c 3.84,16.65 1.26,31.36 -7.68,44.17 -8.97,12.79 -20.81,20.16 -35.52,22.08 -18.58,26.88 -43.68,41.11 -75.37,42.72 -31.67,1.59 -64.16,-8.81 -97.44,-31.21 -20.48,-14.73 -38.56,-35.03 -54.23,-60.95 -15.71,-25.93 -28.49,-54.72 -38.4,-86.4 -9.94,-31.68 -16.98,-65.14 -21.13,-100.33 -4.16,-35.19 -4.97,-69.44 -2.41,-102.71 2.56,-33.3 8.5,-64.65 17.78,-94.08 9.26,-29.45 22.22,-54.09 38.88,-73.91 14.06,-17.29 30.06,-29.94 47.99,-37.94 17.91,-8 36.63,-12.95 56.15,-14.87 19.52,-1.91 38.89,-1.11 58.1,2.39 19.2,3.51 37.44,8.47 54.71,14.89 22.4,8.31 45.46,18.88 69.13,31.68 23.66,12.78 46.39,28.15 68.16,46.08 11.44,9.43 22.46,19.71 33.11,30.74 4.86,-12.04 10.28,-23.69 16.8,-34.59 17.29,-28.78 40.63,-52.15 70.08,-70.07 29.42,-17.92 65.6,-26.55 108.48,-25.92 46.08,0.64 88.64,12.31 127.68,35.04 39.04,22.7 71.05,56.17 96.01,100.32 37.39,0 74.16,6.16 110.32,18.4 -0.29,-3.87 -0.61,-7.95 -0.89,-11.69 -2.55,-33.92 -3.84,-56.95 -3.84,-69.12 -0.63,-21.12 -2.06,-47.19 -4.32,-78.22 -2.24,-31.05 -3.67,-63.69 -4.31,-97.92 -0.63,-34.24 0.64,-68.8 3.84,-103.7 3.2,-34.87 9.91,-66.56 20.16,-95.05 10.22,-28.45 24.78,-52.62 43.67,-72.47 18.87,-19.83 43.68,-31.68 74.41,-35.51 32.63,-4.48 60.78,1.29 84.47,17.28 23.67,16 42.87,37.91 57.61,65.75 14.72,27.86 25.1,60.01 31.19,96.49 6.08,36.47 7.83,73.12 5.29,109.92 -2.57,36.81 -9.29,71.52 -20.17,104.15 -10.89,32.65 -25.93,59.53 -45.13,80.65 11.54,3.19 25.29,9.26 41.29,18.24 15.98,8.95 32.47,19.04 49.45,30.24 4.15,2.75 8.27,5.66 12.43,8.48 -1.57,-22.68 -2.36,-38.85 -2.36,-48.33 -0.63,-21.12 -2.06,-47.19 -4.32,-78.22 -2.23,-31.05 -3.68,-63.69 -4.31,-97.92 -0.63,-34.24 0.63,-68.8 3.83,-103.7 3.2,-34.87 9.93,-66.56 20.16,-95.05 10.23,-28.45 24.8,-52.62 43.68,-72.47 18.87,-19.83 43.68,-31.68 74.41,-35.51 32.63,-4.48 60.78,1.29 84.47,17.28 23.68,16 42.87,37.91 57.61,65.75 14.71,27.86 25.1,60.01 31.19,96.49 6.08,36.47 7.83,73.12 5.28,109.92 -2.56,36.81 -9.29,71.52 -20.15,104.15 -10.9,32.65 -25.93,59.53 -45.14,80.65 11.54,3.19 25.29,9.26 41.29,18.24 15.99,8.95 32.47,19.04 49.45,30.24 8.8,5.82 17.57,11.83 26.3,18 3.3,-31.3 10.4,-58.75 21.68,-81.84 13.76,-28.17 32.48,-49.92 56.17,-65.29 23.67,-15.35 51.51,-23.84 83.53,-25.43 31.99,-1.58 66.86,4.32 104.64,17.76 28.14,10.24 52.63,23.04 73.43,38.39 20.79,15.37 39.51,34.1 56.16,56.17 0.96,1.28 1.87,2.66 2.81,3.95 2.96,-8.96 6.24,-17.58 10.16,-25.55 13.76,-28.17 32.48,-49.92 56.15,-65.29 23.66,-15.35 51.53,-23.84 83.53,-25.43 31.99,-1.58 66.87,4.32 104.64,17.76 28.16,10.24 52.64,23.04 73.44,38.39 20.79,15.37 39.5,34.1 56.16,56.17 16.63,22.09 31.82,47.53 45.6,76.32 13.76,28.8 27.67,61.75 41.76,98.88 2.56,10.24 0.14,19.36 -7.2,27.35" />
    </clipPath>
    <clipPath
       id="clipPath238"
       clipPathUnits="userSpaceOnUse">
      <path
         id="path236"
         d="m 0,202.461 h 12226 v 9743.25 H 0 Z" />
    </clipPath>
  </defs>
  <metadata
     id="metadata5">
    </metadata>
  <g
     transform="translate(0,-286.15207)"
     id="layer1">
    <path
       id="path14"
       style="fill:#f9dd05;fill-opacity:1;fill-rule:nonzero;stroke:none;stroke-width:0.00227926"
       d="M 1.6666667e-6,296.99999 H 47.889602 V 286.15207 H 1.6666667e-6 Z" />
    <g
       transform="matrix(0.9535745,0,0,0.9535745,1.1116371,13.683335)"
       id="g5043">
      <g
         id="g16"
         transform="matrix(0.00478896,0,0,-0.00478896,1.6666667e-6,315.52082)">
        <g
           id="g18"
           clip-path="url(#clipPath22)">
          <g
             id="g24"
             clip-path="url(#clipPath28)">
            <path
               d="m 2075.99,5509.29 h 359.07 v 359.07 h -359.07 v -359.07"
               style="fill:#ffffff;fill-opacity:1;fill-rule:nonzero;stroke:none"
               id="path30" />
          </g>
        </g>
      </g>
      <g
         id="g32"
         transform="matrix(0.00478896,0,0,-0.00478896,1.6666667e-6,315.52082)">
        <g
           id="g34"
           clip-path="url(#clipPath38)">
          <g
             id="g40"
             clip-path="url(#clipPath44)">
            <path
               d="m 1037.42,4256.83 h 977.42 V 5603.89 H 1037.42 V 4256.83"
               style="fill:#f68313;fill-opacity:1;fill-rule:nonzero;stroke:none"
               id="path46" />
          </g>
        </g>
      </g>
      <g
         id="g48"
         transform="matrix(0.00478896,0,0,-0.00478896,1.6666667e-6,315.52082)">
        <g
           id="g50"
           clip-path="url(#clipPath54)">
          <g
             id="g56"
             clip-path="url(#clipPath60)">
            <path
               d="m 1037.42,4256.83 h 879.23 V 5603.89 H 1037.42 V 4256.83"
               style="fill:#f9dd05;fill-opacity:1;fill-rule:nonzero;stroke:none"
               id="path62" />
          </g>
        </g>
      </g>
      <g
         id="g64"
         transform="matrix(0.00478896,0,0,-0.00478896,1.6666667e-6,315.52082)">
        <g
           id="g66"
           clip-path="url(#clipPath70)">
          <path
             d="M 925.203,5482.1 H 2060.43 v 234.78 H 925.203 V 5482.1"
             style="fill:#ffffff;fill-opacity:1;fill-rule:nonzero;stroke:none"
             id="path72" />
        </g>
      </g>
      <path
         d="m 4.8483448,288.84971 h 4.6013764 v -0.28925 H 4.8483448 Z m 4.8532757,0.2519 H 4.5964694 v -0.793 h 5.1051511 v 0.793"
         style="fill:#100f0d;fill-opacity:1;fill-rule:nonzero;stroke:none;stroke-width:0.00478896"
         id="path74" />
      <g
         id="g76"
         transform="matrix(0.00478896,0,0,-0.00478896,1.6666667e-6,315.52082)">
        <g
           id="g78"
           clip-path="url(#clipPath82)">
          <g
             id="g84"
             clip-path="url(#clipPath88)">
            <path
               d="M 1040.93,5609.22 H 1937.7 V 5900.5 H 1040.93 V 5609.22"
               style="fill:#ffffff;fill-opacity:1;fill-rule:nonzero;stroke:none"
               id="path90" />
          </g>
        </g>
      </g>
      <path
         d="M 5.4686109,288.24094 H 8.7958845 L 8.5526532,287.68111 H 5.7118421 Z m 3.7113482,0.2519 H 5.0844884 l 0.4621346,-1.06358 h 3.1712015 l 0.4621346,1.06358"
         style="fill:#12110f;fill-opacity:1;fill-rule:nonzero;stroke:none;stroke-width:0.00478896"
         id="path92" />
      <path
         d="m 5.9552171,294.71748 h 2.3708225 l 0.8838505,-5.6151 -2.0698843,0.0106 -2.0686392,-0.0106 z m 2.5861342,0.25185 H 5.7398576 l -0.9633712,-6.12043 2.3640941,0.0122 2.3642616,-0.0122 -0.9634908,6.12043"
         style="fill:#100f0d;fill-opacity:1;fill-rule:nonzero;stroke:none;stroke-width:0.00478896"
         id="path94" />
      <g
         id="g96"
         transform="matrix(0.00478896,0,0,-0.00478896,1.6666667e-6,315.52082)">
        <g
           id="g98"
           clip-path="url(#clipPath102)">
          <g
             id="g104"
             clip-path="url(#clipPath108)">
            <path
               d="M 949.746,4648.78 H 2028.87 v 609.07 H 949.746 v -609.07"
               style="fill:#ffffff;fill-opacity:1;fill-rule:nonzero;stroke:none"
               id="path110" />
          </g>
        </g>
      </g>
      <path
         d="m 7.1308589,292.82014 1.7744054,0.0192 0.3689894,-2.08057 H 4.9901938 l 0.3689893,2.08057 z m 1.9851676,0.27336 -1.9851676,-0.0215 -1.98239,0.0215 -0.4587489,-2.58662 h 4.8850888 l -0.4587823,2.58662"
         style="fill:#100f0d;fill-opacity:1;fill-rule:nonzero;stroke:none;stroke-width:0.00478896"
         id="path112" />
      <g
         id="g114"
         transform="matrix(0.00478896,0,0,-0.00478896,1.6666667e-6,315.52082)">
        <g
           id="g116"
           clip-path="url(#clipPath120)">
          <g
             id="g122"
             clip-path="url(#clipPath126)">
            <path
               d="m 653.836,5231.21 c -79.559,0 -144.063,64.49 -144.063,144.06 0,79.57 64.504,144.07 144.063,144.07 79.57,0 144.074,-64.5 144.074,-144.07 0,-79.57 -64.504,-144.06 -144.074,-144.06 m 0,203.38 c -32.703,0 -59.324,-26.61 -59.324,-59.32 0,-32.71 26.621,-59.33 59.324,-59.33 32.715,0 59.328,26.62 59.328,59.33 0,32.71 -26.613,59.32 -59.328,59.32"
               style="fill:#ddc50f;fill-opacity:1;fill-rule:nonzero;stroke:none"
               id="path128" />
          </g>
        </g>
      </g>
      <g
         id="g130"
         transform="matrix(0.00478896,0,0,-0.00478896,1.6666667e-6,315.52082)">
        <g
           id="g132"
           clip-path="url(#clipPath136)">
          <g
             id="g138"
             clip-path="url(#clipPath142)">
            <path
               d="m 2153.83,4875.27 c -37.44,0 -67.79,30.36 -67.79,67.81 0,37.44 30.35,67.79 67.79,67.79 37.44,0 67.79,-30.35 67.79,-67.79 0,-37.45 -30.35,-67.81 -67.79,-67.81"
               style="fill:#ddc50f;fill-opacity:1;fill-rule:nonzero;stroke:none"
               id="path144" />
          </g>
        </g>
      </g>
      <g
         id="g146"
         transform="matrix(0.00478896,0,0,-0.00478896,1.6666667e-6,315.52082)">
        <g
           id="g148"
           clip-path="url(#clipPath152)">
          <g
             id="g154"
             clip-path="url(#clipPath158)">
            <path
               d="m 753.965,4424.55 h 257.385 v 257.38 H 753.965 v -257.38"
               style="fill:#f46c35;fill-opacity:1;fill-rule:nonzero;stroke:none"
               id="path160" />
          </g>
        </g>
      </g>
      <g
         id="g162"
         transform="matrix(0.00478896,0,0,-0.00478896,1.6666667e-6,315.52082)">
        <g
           id="g164"
           clip-path="url(#clipPath168)">
          <g
             id="g170"
             clip-path="url(#clipPath174)">
            <path
               d="m 2446.24,4526.29 h 700.9 v 961.88 h -700.9 v -961.88"
               style="fill:#100f0d;fill-opacity:1;fill-rule:nonzero;stroke:none"
               id="path176" />
          </g>
        </g>
      </g>
      <g
         id="g178"
         transform="matrix(0.00478896,0,0,-0.00478896,1.6666667e-6,315.52082)">
        <g
           id="g180"
           clip-path="url(#clipPath184)">
          <g
             id="g186"
             clip-path="url(#clipPath190)">
            <path
               d="m 3039.52,4073.2 h 1366.3 V 5227.43 H 3039.52 V 4073.2"
               style="fill:#100f0d;fill-opacity:1;fill-rule:nonzero;stroke:none"
               id="path192" />
          </g>
        </g>
      </g>
      <g
         id="g194"
         transform="matrix(0.00478896,0,0,-0.00478896,1.6666667e-6,315.52082)">
        <g
           id="g196"
           clip-path="url(#clipPath200)">
          <g
             id="g202"
             clip-path="url(#clipPath206)">
            <path
               d="m 4456.3,4482.15 h 1511.12 v 770.14 H 4456.3 v -770.14"
               style="fill:#100f0d;fill-opacity:1;fill-rule:nonzero;stroke:none"
               id="path208" />
          </g>
        </g>
      </g>
      <g
         id="g210"
         transform="matrix(0.00478896,0,0,-0.00478896,1.6666667e-6,315.52082)">
        <g
           id="g212"
           clip-path="url(#clipPath216)">
          <g
             id="g218"
             clip-path="url(#clipPath222)">
            <path
               d="m 6023.16,4505.92 h 801.49 v 722.27 h -801.49 v -722.27"
               style="fill:#100f0d;fill-opacity:1;fill-rule:nonzero;stroke:none"
               id="path224" />
          </g>
        </g>
      </g>
      <g
         id="g226"
         transform="matrix(0.00478896,0,0,-0.00478896,1.6666667e-6,315.52082)">
        <g
           id="g228"
           clip-path="url(#clipPath232)">
          <g
             id="g234"
             clip-path="url(#clipPath238)">
            <path
               d="M 6877.11,4112.77 H 9551.12 V 5483.81 H 6877.11 V 4112.77"
               style="fill:#100f0d;fill-opacity:1;fill-rule:nonzero;stroke:none"
               id="path240" />
          </g>
        </g>
      </g>
    </g>
  </g>
</svg>
