<?xml version="1.0" encoding="UTF-8" standalone="no"?>
<svg
   xmlns:dc="http://purl.org/dc/elements/1.1/"
   xmlns:cc="http://creativecommons.org/ns#"
   xmlns:rdf="http://www.w3.org/1999/02/22-rdf-syntax-ns#"
   xmlns:svg="http://www.w3.org/2000/svg"
   xmlns="http://www.w3.org/2000/svg"
   version="1.1"
   width="100"
   viewBox="0 0 100 100"
   height="100">
  <metadata>
    <rdf:RDF>
      <cc:Work
         rdf:about="">
        <dc:format>image/svg+xml</dc:format>
        <dc:type
           rdf:resource="http://purl.org/dc/dcmitype/StillImage" />
        <dc:title></dc:title>
      </cc:Work>
    </rdf:RDF>
  </metadata>
  <rect
     y="0"
     x="0"
     height="100"
     width="100"
     style="fill:#e0e0e0" />
  <path
     style="stroke-width:3.15789485;fill:#757575"
     d="m 50,57.894737 c 5.242105,0 9.442105,-4.231578 9.442105,-9.473684 l 0.03158,-18.947368 C 59.473685,24.231579 55.242107,20 50.000001,20 c -5.242105,0 -9.473685,4.231579 -9.473685,9.473685 v 18.947368 c 0,5.242106 4.23158,9.473684 9.473684,9.473684 z M 46.210526,29.157894 c 0,-2.084209 1.705264,-3.789473 3.789474,-3.789473 2.084211,0 3.789474,1.705264 3.789474,3.789473 l -0.03158,19.578947 c 0,2.084212 -1.673684,3.789474 -3.757895,3.789474 -2.08421,0 -3.789473,-1.705262 -3.789473,-3.789474 z m 20.526317,19.263159 c 0,9.473684 -8.021053,16.105262 -16.736843,16.105262 -8.715789,0 -16.736842,-6.631578 -16.736842,-16.105262 h -5.368421 c 0,10.768421 8.589474,19.673684 18.947368,21.221053 V 80 h 6.315791 V 69.642106 C 63.51579,68.126315 72.105263,59.221053 72.105263,48.421053 Z" />
</svg>
